# xmcd
#
# Track frame offsets:
#	150
#	13734
#	26683
#	42944
#	58771
#	74486
#	89348
#	104566
#	121957
#	133478
#	149954
#	163169
#	175979
#
# Disc length: 2534 seconds
#
# Revision: 1
# Processed by: cddbd v1.5.2PL0 Copyright (c) Steve Scherf et al.
# Submitted via: audiograbber 1.82.02
#
DISCID=ce09e40d
DTITLE=Trish Lester - Plymouth Belvedere
DYEAR=2007
DGENRE=Folk
TTITLE0=The Words Keep Coming Through
TTITLE1=Plymouth Belvedere
TTITLE2=How Do We Go On
TTITLE3=Waitin' for an Easy Way Out
TTITLE4=I'm Drifting
TTITLE5=It's Just a Cookie
TTITLE6=Your Special Gift
TTITLE7=Yosemite
TTITLE8=Smith and Wesson 38
TTITLE9=The Water is Wide
TTITLE10=Thank a Soldier
TTITLE11=The World Changed Forever
TTITLE12=The Christmas Letter
EXTD=
EXTT0=
EXTT1=
EXTT2=
EXTT3=
EXTT4=
EXTT5=
EXTT6=
EXTT7=
EXTT8=
EXTT9=
EXTT10=
EXTT11=
EXTT12=
PLAYORDER=
